<svg width="25" height="25" viewBox="0 0 25 25" fill="none" xmlns="http://www.w3.org/2000/svg">
<g id="bxs:home">
<path id="Vector" d="M22.649 12.845L13.274 2.42832C12.8792 1.98874 12.1209 1.98874 11.7261 2.42832L2.35106 12.845C2.21635 12.9947 2.12793 13.1802 2.0965 13.3792C2.06507 13.5781 2.09198 13.7819 2.17398 13.9658C2.34064 14.3419 2.71356 14.5835 3.12502 14.5835H5.20835V21.8752C5.20835 22.1515 5.3181 22.4164 5.51345 22.6118C5.7088 22.8071 5.97375 22.9169 6.25002 22.9169H9.37502C9.65129 22.9169 9.91624 22.8071 10.1116 22.6118C10.3069 22.4164 10.4167 22.1515 10.4167 21.8752V17.7085H14.5834V21.8752C14.5834 22.1515 14.6931 22.4164 14.8884 22.6118C15.0838 22.8071 15.3488 22.9169 15.625 22.9169H18.75C19.0263 22.9169 19.2912 22.8071 19.4866 22.6118C19.6819 22.4164 19.7917 22.1515 19.7917 21.8752V14.5835H21.875C22.0768 14.5844 22.2744 14.5265 22.4438 14.417C22.6132 14.3075 22.7471 14.1511 22.8292 13.9668C22.9112 13.7825 22.9379 13.5783 22.9059 13.3791C22.8739 13.1799 22.7846 12.9943 22.649 12.845Z" fill="#9E9E9E"/>
</g>
</svg>
