<svg width="25" height="25" viewBox="0 0 25 25" fill="none" xmlns="http://www.w3.org/2000/svg">
<path d="M12.5 9.375C10.8062 9.375 9.375 10.8062 9.375 12.5C9.375 14.1937 10.8062 15.625 12.5 15.625C14.1937 15.625 15.625 14.1937 15.625 12.5C15.625 10.8062 14.1937 9.375 12.5 9.375Z" fill="#9E9E9E"/>
<path d="M20.8334 5.2085H18.1396L15.3198 2.3887C15.1245 2.19334 14.8596 2.08356 14.5834 2.0835H10.4167C10.1405 2.08356 9.87555 2.19334 9.68025 2.3887L6.86046 5.2085H4.16671C3.01775 5.2085 2.08337 6.14287 2.08337 7.29183V18.7502C2.08337 19.8991 3.01775 20.8335 4.16671 20.8335H20.8334C21.9823 20.8335 22.9167 19.8991 22.9167 18.7502V7.29183C22.9167 6.14287 21.9823 5.2085 20.8334 5.2085ZM12.5 17.7085C9.67712 17.7085 7.29171 15.3231 7.29171 12.5002C7.29171 9.67725 9.67712 7.29183 12.5 7.29183C15.323 7.29183 17.7084 9.67725 17.7084 12.5002C17.7084 15.3231 15.323 17.7085 12.5 17.7085Z" fill="#9E9E9E"/>
</svg>
